<mxfile host="app.diagrams.net" modified="2023-06-27T14:42:34.484Z" agent="Mozilla/5.0 (Windows NT 10.0; Win64; x64) AppleWebKit/537.36 (KHTML, like Gecko) Chrome/114.0.0.0 Safari/537.36" etag="F2eagmPZvjG4XmMwsSYw" version="21.5.1" type="github">
  <diagram name="PÃ¡gina-1" id="no3CpgzLTNT8zDQo7aIw">
    <mxGraphModel dx="908" dy="515" grid="1" gridSize="10" guides="1" tooltips="1" connect="1" arrows="1" fold="1" page="1" pageScale="1" pageWidth="827" pageHeight="1169" math="0" shadow="0">
      <root>
        <mxCell id="0" />
        <mxCell id="1" parent="0" />
        <mxCell id="oMTdxIw0wlMCvw5rmtYa-5" style="edgeStyle=orthogonalEdgeStyle;rounded=0;orthogonalLoop=1;jettySize=auto;html=1;shape=link;" edge="1" parent="1" source="oMTdxIw0wlMCvw5rmtYa-2" target="oMTdxIw0wlMCvw5rmtYa-3">
          <mxGeometry relative="1" as="geometry" />
        </mxCell>
        <mxCell id="oMTdxIw0wlMCvw5rmtYa-2" value="BEGA WORKS SYSTEM" style="rounded=1;whiteSpace=wrap;html=1;" vertex="1" parent="1">
          <mxGeometry x="340" y="30" width="120" height="60" as="geometry" />
        </mxCell>
        <mxCell id="oMTdxIw0wlMCvw5rmtYa-35" style="edgeStyle=orthogonalEdgeStyle;rounded=0;orthogonalLoop=1;jettySize=auto;html=1;entryX=1.018;entryY=0.115;entryDx=0;entryDy=0;entryPerimeter=0;" edge="1" parent="1" source="oMTdxIw0wlMCvw5rmtYa-3" target="oMTdxIw0wlMCvw5rmtYa-20">
          <mxGeometry relative="1" as="geometry" />
        </mxCell>
        <mxCell id="oMTdxIw0wlMCvw5rmtYa-46" style="edgeStyle=orthogonalEdgeStyle;rounded=0;orthogonalLoop=1;jettySize=auto;html=1;" edge="1" parent="1" source="oMTdxIw0wlMCvw5rmtYa-3" target="oMTdxIw0wlMCvw5rmtYa-38">
          <mxGeometry relative="1" as="geometry" />
        </mxCell>
        <mxCell id="oMTdxIw0wlMCvw5rmtYa-3" value="BANCO DE DADOS" style="rounded=1;whiteSpace=wrap;html=1;" vertex="1" parent="1">
          <mxGeometry x="340" y="140" width="120" height="60" as="geometry" />
        </mxCell>
        <mxCell id="oMTdxIw0wlMCvw5rmtYa-12" style="edgeStyle=orthogonalEdgeStyle;rounded=0;orthogonalLoop=1;jettySize=auto;html=1;entryX=0;entryY=0.5;entryDx=0;entryDy=0;exitX=1.001;exitY=0.115;exitDx=0;exitDy=0;exitPerimeter=0;" edge="1" parent="1" source="oMTdxIw0wlMCvw5rmtYa-31" target="oMTdxIw0wlMCvw5rmtYa-3">
          <mxGeometry relative="1" as="geometry">
            <mxPoint x="235" y="800.0588235294117" as="sourcePoint" />
          </mxGeometry>
        </mxCell>
        <mxCell id="oMTdxIw0wlMCvw5rmtYa-20" value="CLIENTES" style="swimlane;fontStyle=0;childLayout=stackLayout;horizontal=1;startSize=30;horizontalStack=0;resizeParent=1;resizeParentMax=0;resizeLast=0;collapsible=1;marginBottom=0;whiteSpace=wrap;html=1;" vertex="1" parent="1">
          <mxGeometry x="120" y="150" width="140" height="120" as="geometry" />
        </mxCell>
        <mxCell id="oMTdxIw0wlMCvw5rmtYa-21" value="CLASSE.PESSOA" style="text;strokeColor=none;fillColor=none;align=left;verticalAlign=middle;spacingLeft=4;spacingRight=4;overflow=hidden;points=[[0,0.5],[1,0.5]];portConstraint=eastwest;rotatable=0;whiteSpace=wrap;html=1;" vertex="1" parent="oMTdxIw0wlMCvw5rmtYa-20">
          <mxGeometry y="30" width="140" height="30" as="geometry" />
        </mxCell>
        <mxCell id="oMTdxIw0wlMCvw5rmtYa-22" value="EMPRESA" style="text;strokeColor=none;fillColor=none;align=left;verticalAlign=middle;spacingLeft=4;spacingRight=4;overflow=hidden;points=[[0,0.5],[1,0.5]];portConstraint=eastwest;rotatable=0;whiteSpace=wrap;html=1;" vertex="1" parent="oMTdxIw0wlMCvw5rmtYa-20">
          <mxGeometry y="60" width="140" height="30" as="geometry" />
        </mxCell>
        <mxCell id="oMTdxIw0wlMCvw5rmtYa-23" value="AGRO_SETOR" style="text;strokeColor=none;fillColor=none;align=left;verticalAlign=middle;spacingLeft=4;spacingRight=4;overflow=hidden;points=[[0,0.5],[1,0.5]];portConstraint=eastwest;rotatable=0;whiteSpace=wrap;html=1;" vertex="1" parent="oMTdxIw0wlMCvw5rmtYa-20">
          <mxGeometry y="90" width="140" height="30" as="geometry" />
        </mxCell>
        <mxCell id="oMTdxIw0wlMCvw5rmtYa-30" style="edgeStyle=orthogonalEdgeStyle;rounded=0;orthogonalLoop=1;jettySize=auto;html=1;" edge="1" parent="1" source="oMTdxIw0wlMCvw5rmtYa-25" target="oMTdxIw0wlMCvw5rmtYa-21">
          <mxGeometry relative="1" as="geometry" />
        </mxCell>
        <mxCell id="oMTdxIw0wlMCvw5rmtYa-37" style="edgeStyle=orthogonalEdgeStyle;rounded=0;orthogonalLoop=1;jettySize=auto;html=1;entryX=0;entryY=0.5;entryDx=0;entryDy=0;" edge="1" parent="1" source="oMTdxIw0wlMCvw5rmtYa-25" target="oMTdxIw0wlMCvw5rmtYa-32">
          <mxGeometry relative="1" as="geometry" />
        </mxCell>
        <mxCell id="oMTdxIw0wlMCvw5rmtYa-25" value="PESSOA" style="swimlane;fontStyle=0;childLayout=stackLayout;horizontal=1;startSize=30;horizontalStack=0;resizeParent=1;resizeParentMax=0;resizeLast=0;collapsible=1;marginBottom=0;whiteSpace=wrap;html=1;" vertex="1" parent="1">
          <mxGeometry x="10" y="320" width="140" height="120" as="geometry" />
        </mxCell>
        <mxCell id="oMTdxIw0wlMCvw5rmtYa-26" value="NOME" style="text;strokeColor=none;fillColor=none;align=left;verticalAlign=middle;spacingLeft=4;spacingRight=4;overflow=hidden;points=[[0,0.5],[1,0.5]];portConstraint=eastwest;rotatable=0;whiteSpace=wrap;html=1;" vertex="1" parent="oMTdxIw0wlMCvw5rmtYa-25">
          <mxGeometry y="30" width="140" height="30" as="geometry" />
        </mxCell>
        <mxCell id="oMTdxIw0wlMCvw5rmtYa-27" value="IDADE" style="text;strokeColor=none;fillColor=none;align=left;verticalAlign=middle;spacingLeft=4;spacingRight=4;overflow=hidden;points=[[0,0.5],[1,0.5]];portConstraint=eastwest;rotatable=0;whiteSpace=wrap;html=1;" vertex="1" parent="oMTdxIw0wlMCvw5rmtYa-25">
          <mxGeometry y="60" width="140" height="30" as="geometry" />
        </mxCell>
        <mxCell id="oMTdxIw0wlMCvw5rmtYa-28" value="CONTATO" style="text;strokeColor=none;fillColor=none;align=left;verticalAlign=middle;spacingLeft=4;spacingRight=4;overflow=hidden;points=[[0,0.5],[1,0.5]];portConstraint=eastwest;rotatable=0;whiteSpace=wrap;html=1;" vertex="1" parent="oMTdxIw0wlMCvw5rmtYa-25">
          <mxGeometry y="90" width="140" height="30" as="geometry" />
        </mxCell>
        <mxCell id="oMTdxIw0wlMCvw5rmtYa-31" value="USUARIO" style="swimlane;fontStyle=0;childLayout=stackLayout;horizontal=1;startSize=30;horizontalStack=0;resizeParent=1;resizeParentMax=0;resizeLast=0;collapsible=1;marginBottom=0;whiteSpace=wrap;html=1;" vertex="1" parent="1">
          <mxGeometry x="180" y="320" width="140" height="120" as="geometry" />
        </mxCell>
        <mxCell id="oMTdxIw0wlMCvw5rmtYa-32" value="CLASSE.PESSOA" style="text;strokeColor=none;fillColor=none;align=left;verticalAlign=middle;spacingLeft=4;spacingRight=4;overflow=hidden;points=[[0,0.5],[1,0.5]];portConstraint=eastwest;rotatable=0;whiteSpace=wrap;html=1;" vertex="1" parent="oMTdxIw0wlMCvw5rmtYa-31">
          <mxGeometry y="30" width="140" height="30" as="geometry" />
        </mxCell>
        <mxCell id="oMTdxIw0wlMCvw5rmtYa-33" value="NIVEL DE ACESSO" style="text;strokeColor=none;fillColor=none;align=left;verticalAlign=middle;spacingLeft=4;spacingRight=4;overflow=hidden;points=[[0,0.5],[1,0.5]];portConstraint=eastwest;rotatable=0;whiteSpace=wrap;html=1;" vertex="1" parent="oMTdxIw0wlMCvw5rmtYa-31">
          <mxGeometry y="60" width="140" height="30" as="geometry" />
        </mxCell>
        <mxCell id="oMTdxIw0wlMCvw5rmtYa-34" value="SETOR" style="text;strokeColor=none;fillColor=none;align=left;verticalAlign=middle;spacingLeft=4;spacingRight=4;overflow=hidden;points=[[0,0.5],[1,0.5]];portConstraint=eastwest;rotatable=0;whiteSpace=wrap;html=1;" vertex="1" parent="oMTdxIw0wlMCvw5rmtYa-31">
          <mxGeometry y="90" width="140" height="30" as="geometry" />
        </mxCell>
        <mxCell id="oMTdxIw0wlMCvw5rmtYa-38" value="SISTEMA" style="swimlane;fontStyle=0;childLayout=stackLayout;horizontal=1;startSize=30;horizontalStack=0;resizeParent=1;resizeParentMax=0;resizeLast=0;collapsible=1;marginBottom=0;whiteSpace=wrap;html=1;" vertex="1" parent="1">
          <mxGeometry x="610" y="310" width="190" height="150" as="geometry" />
        </mxCell>
        <mxCell id="oMTdxIw0wlMCvw5rmtYa-39" value="CAMERA&lt;span style=&quot;white-space: pre;&quot;&gt;&#x9;&lt;/span&gt;" style="text;strokeColor=none;fillColor=none;align=left;verticalAlign=middle;spacingLeft=4;spacingRight=4;overflow=hidden;points=[[0,0.5],[1,0.5]];portConstraint=eastwest;rotatable=0;whiteSpace=wrap;html=1;" vertex="1" parent="oMTdxIw0wlMCvw5rmtYa-38">
          <mxGeometry y="30" width="190" height="30" as="geometry" />
        </mxCell>
        <mxCell id="oMTdxIw0wlMCvw5rmtYa-40" value="RECONHECIMENTO DE VOZ (FECHAMENTO DAS PORTAS" style="text;strokeColor=none;fillColor=none;align=left;verticalAlign=middle;spacingLeft=4;spacingRight=4;overflow=hidden;points=[[0,0.5],[1,0.5]];portConstraint=eastwest;rotatable=0;whiteSpace=wrap;html=1;" vertex="1" parent="oMTdxIw0wlMCvw5rmtYa-38">
          <mxGeometry y="60" width="190" height="30" as="geometry" />
        </mxCell>
        <mxCell id="oMTdxIw0wlMCvw5rmtYa-41" value="ACESSO (QR Code)" style="text;strokeColor=none;fillColor=none;align=left;verticalAlign=middle;spacingLeft=4;spacingRight=4;overflow=hidden;points=[[0,0.5],[1,0.5]];portConstraint=eastwest;rotatable=0;whiteSpace=wrap;html=1;" vertex="1" parent="oMTdxIw0wlMCvw5rmtYa-38">
          <mxGeometry y="90" width="190" height="30" as="geometry" />
        </mxCell>
        <mxCell id="oMTdxIw0wlMCvw5rmtYa-43" value="ENTRADA E SAIDA DE FUNCIONARIOS" style="text;strokeColor=none;fillColor=none;align=left;verticalAlign=middle;spacingLeft=4;spacingRight=4;overflow=hidden;points=[[0,0.5],[1,0.5]];portConstraint=eastwest;rotatable=0;whiteSpace=wrap;html=1;" vertex="1" parent="oMTdxIw0wlMCvw5rmtYa-38">
          <mxGeometry y="120" width="190" height="30" as="geometry" />
        </mxCell>
        <mxCell id="oMTdxIw0wlMCvw5rmtYa-52" style="edgeStyle=orthogonalEdgeStyle;rounded=0;orthogonalLoop=1;jettySize=auto;html=1;entryX=0.5;entryY=1;entryDx=0;entryDy=0;" edge="1" parent="1" source="oMTdxIw0wlMCvw5rmtYa-48" target="oMTdxIw0wlMCvw5rmtYa-3">
          <mxGeometry relative="1" as="geometry" />
        </mxCell>
        <mxCell id="oMTdxIw0wlMCvw5rmtYa-48" value="SETORES" style="swimlane;fontStyle=0;childLayout=stackLayout;horizontal=1;startSize=30;horizontalStack=0;resizeParent=1;resizeParentMax=0;resizeLast=0;collapsible=1;marginBottom=0;whiteSpace=wrap;html=1;" vertex="1" parent="1">
          <mxGeometry x="380" y="320" width="140" height="120" as="geometry" />
        </mxCell>
        <mxCell id="oMTdxIw0wlMCvw5rmtYa-49" value="GERENCIA" style="text;strokeColor=none;fillColor=none;align=left;verticalAlign=middle;spacingLeft=4;spacingRight=4;overflow=hidden;points=[[0,0.5],[1,0.5]];portConstraint=eastwest;rotatable=0;whiteSpace=wrap;html=1;" vertex="1" parent="oMTdxIw0wlMCvw5rmtYa-48">
          <mxGeometry y="30" width="140" height="30" as="geometry" />
        </mxCell>
        <mxCell id="oMTdxIw0wlMCvw5rmtYa-50" value="RH" style="text;strokeColor=none;fillColor=none;align=left;verticalAlign=middle;spacingLeft=4;spacingRight=4;overflow=hidden;points=[[0,0.5],[1,0.5]];portConstraint=eastwest;rotatable=0;whiteSpace=wrap;html=1;" vertex="1" parent="oMTdxIw0wlMCvw5rmtYa-48">
          <mxGeometry y="60" width="140" height="30" as="geometry" />
        </mxCell>
        <mxCell id="oMTdxIw0wlMCvw5rmtYa-51" value="GESTORES TECNICOS" style="text;strokeColor=none;fillColor=none;align=left;verticalAlign=middle;spacingLeft=4;spacingRight=4;overflow=hidden;points=[[0,0.5],[1,0.5]];portConstraint=eastwest;rotatable=0;whiteSpace=wrap;html=1;" vertex="1" parent="oMTdxIw0wlMCvw5rmtYa-48">
          <mxGeometry y="90" width="140" height="30" as="geometry" />
        </mxCell>
        <mxCell id="oMTdxIw0wlMCvw5rmtYa-54" style="edgeStyle=orthogonalEdgeStyle;rounded=0;orthogonalLoop=1;jettySize=auto;html=1;entryX=-0.002;entryY=0.098;entryDx=0;entryDy=0;entryPerimeter=0;" edge="1" parent="1" source="oMTdxIw0wlMCvw5rmtYa-49" target="oMTdxIw0wlMCvw5rmtYa-38">
          <mxGeometry relative="1" as="geometry" />
        </mxCell>
        <mxCell id="oMTdxIw0wlMCvw5rmtYa-55" style="edgeStyle=orthogonalEdgeStyle;rounded=0;orthogonalLoop=1;jettySize=auto;html=1;" edge="1" parent="1" source="oMTdxIw0wlMCvw5rmtYa-50" target="oMTdxIw0wlMCvw5rmtYa-40">
          <mxGeometry relative="1" as="geometry" />
        </mxCell>
        <mxCell id="oMTdxIw0wlMCvw5rmtYa-56" style="edgeStyle=orthogonalEdgeStyle;rounded=0;orthogonalLoop=1;jettySize=auto;html=1;" edge="1" parent="1" source="oMTdxIw0wlMCvw5rmtYa-50" target="oMTdxIw0wlMCvw5rmtYa-41">
          <mxGeometry relative="1" as="geometry" />
        </mxCell>
        <mxCell id="oMTdxIw0wlMCvw5rmtYa-57" style="edgeStyle=orthogonalEdgeStyle;rounded=0;orthogonalLoop=1;jettySize=auto;html=1;" edge="1" parent="1" source="oMTdxIw0wlMCvw5rmtYa-51" target="oMTdxIw0wlMCvw5rmtYa-41">
          <mxGeometry relative="1" as="geometry" />
        </mxCell>
        <mxCell id="oMTdxIw0wlMCvw5rmtYa-59" style="edgeStyle=orthogonalEdgeStyle;rounded=0;orthogonalLoop=1;jettySize=auto;html=1;" edge="1" parent="1" source="oMTdxIw0wlMCvw5rmtYa-51" target="oMTdxIw0wlMCvw5rmtYa-40">
          <mxGeometry relative="1" as="geometry" />
        </mxCell>
        <mxCell id="oMTdxIw0wlMCvw5rmtYa-60" value="Aluno: Pedro Fanan&lt;br&gt;RU: 4219736" style="rounded=0;whiteSpace=wrap;html=1;" vertex="1" parent="1">
          <mxGeometry x="110" y="30" width="120" height="60" as="geometry" />
        </mxCell>
      </root>
    </mxGraphModel>
  </diagram>
</mxfile>
